<?xml version="1.0" encoding="utf-8"?><svg xmlns="http://www.w3.org/2000/svg" width="280" height="250" preserveAspectRatio="xMidYMid" xmlns:xlink="http://www.w3.org/1999/xlink" style="margin-right:-1.33333px;display:block;animation-play-state:paused" ><style type="text/css" style="animation-play-state:paused" >text {
    text-anchor: middle; font-size: 80px; opacity: 0;
  }</style>


<g style="transform-origin:140px 125px;transform:matrix(1, 0, 0, 1, 0, 0);animation-play-state:paused" ><g transform="translate(140,125)" style="transform:matrix(1, 0, 0, 1, 140, 125);animation-play-state:paused" ><g transform="translate(0,0)" style="transform:matrix(1, 0, 0, 1, 0, 0);animation-play-state:paused" ><g class="path" style="transform-origin:-96.4px 0.611668px;animation-timing-function:linear;animation-play-state:paused;animation-name:static-75baa942-0db8-4f52-85e0-cabc7022affc;animation-iteration-count:infinite;animation-fill-mode:forwards;animation-duration:1s;animation-delay:-0.565714s" ><path d="M5.60-30.40L9.68-30.40L11.84-42.24L11.84-42.24Q17.76-42.24 20.64-42.72L20.64-42.72L21.68-42.96L21.68-42.96Q20.56-37.36 19.20-30.40L19.20-30.40L29.12-30.40L28.96-28.96L18.96-28.96L18.96-28.96Q14.96-8.32 14.96-4.08L14.96-4.08L14.96-4.08Q14.96-1.52 17.68-1.52L17.68-1.52L17.68-1.52Q20.40-1.52 22.64-4.96L22.64-4.96L22.64-4.96Q24.88-8.40 25.84-12.40L25.84-12.40L27.28-11.92L27.28-11.92Q24.32 0.72 15.04 0.72L15.04 0.72L15.04 0.72Q11.20 0.72 8.64-1.40L8.64-1.40L8.64-1.40Q6.08-3.52 6.08-7.32L6.08-7.32L6.08-7.32Q6.08-11.12 9.36-28.96L9.36-28.96L5.44-28.96L5.60-30.40" fill="#ffffff" stroke="none" stroke-width="none" transform="translate(-113.67995262145996,21.73166575908661)" style="transform:matrix(1, 0, 0, 1, -113.68, 21.7317);fill:rgb(255, 255, 255);animation-play-state:paused" ></path></g>
<g class="path" style="transform-origin:-65.6px 13.5317px;animation-timing-function:linear;animation-play-state:paused;animation-name:static-75baa942-0db8-4f52-85e0-cabc7022affc;animation-iteration-count:infinite;animation-fill-mode:forwards;animation-duration:1s;animation-delay:-0.471429s" ><path d="M35.44-29.52L35.44-29.52L35.44-29.52Q33.52-29.52 31.44-27.28L31.44-27.28L30.24-28.24L30.24-28.24Q30.80-29.36 32.72-30.24L32.72-30.24L32.72-30.24Q34.64-31.12 36.96-31.12L36.96-31.12L36.96-31.12Q44.24-31.12 44.24-24.56L44.24-24.56L44.24-24.56Q44.24-21.76 42.72-15.40L42.72-15.40L42.72-15.40Q41.20-9.04 41.20-6.80L41.20-6.80L41.20-6.80Q41.20-2.96 44.40-2.96L44.40-2.96L44.40-2.96Q47.04-2.96 49.56-6.56L49.56-6.56L49.56-6.56Q52.08-10.16 53.68-16.24L53.68-16.24L56.32-30.40L56.32-30.40Q62.24-30.40 64.96-30.88L64.96-30.88L66-31.12L60.96-2.80L60.96-2.80Q59.52 5.44 54.28 10.08L54.28 10.08L54.28 10.08Q49.04 14.72 40.72 14.72L40.72 14.72L40.72 14.72Q35.68 14.72 32.92 13L32.92 13L32.92 13Q30.16 11.28 30.16 8.52L30.16 8.52L30.16 8.52Q30.16 5.76 31.84 4.12L31.84 4.12L31.84 4.12Q33.52 2.48 36.60 2.48L36.60 2.48L36.60 2.48Q39.68 2.48 42.32 3.48L42.32 3.48L42.32 3.48Q44.96 4.48 46.16 4.64L46.16 4.64L46 6.08L46 6.08Q44.64 5.92 42.08 4.96L42.08 4.96L42.08 4.96Q39.52 4 37 4L37 4L37 4Q34.48 4 33.16 5.12L33.16 5.12L33.16 5.12Q31.84 6.24 31.84 8.36L31.84 8.36L31.84 8.36Q31.84 10.48 34.16 11.80L34.16 11.80L34.16 11.80Q36.48 13.12 39.92 13.12L39.92 13.12L39.92 13.12Q48.24 13.12 50.16 3.12L50.16 3.12L52.16-7.92L52.16-7.92Q48.80-0.56 42-0.56L42-0.56L42-0.56Q37.36-0.56 34.84-3.20L34.84-3.20L34.84-3.20Q32.32-5.84 32.32-10.64L32.32-10.64L32.32-10.64Q32.32-13.12 33.80-19.56L33.80-19.56L33.80-19.56Q35.28-26 35.44-29.52" fill="#ffffff" stroke="none" stroke-width="none" transform="translate(-113.67995262145996,21.73166575908661)" style="transform:matrix(1, 0, 0, 1, -113.68, 21.7317);fill:rgb(255, 255, 255);animation-play-state:paused" ></path></g>
<g class="path" style="transform-origin:-28.24px 11.8117px;animation-timing-function:linear;animation-play-state:paused;animation-name:static-75baa942-0db8-4f52-85e0-cabc7022affc;animation-iteration-count:infinite;animation-fill-mode:forwards;animation-duration:1s;animation-delay:-0.377143s" ><path d="M85.12 0.64L85.12 0.64L85.12 0.64Q81.44 0.64 79.28-1.04L79.28-1.04L76.88 11.84L67.36 11.84L74.88-30.08L74.88-30.08Q72.48-29.84 70.88-27.84L70.88-27.84L69.68-28.80L69.68-28.80Q72.08-31.68 75.64-31.68L75.64-31.68L75.64-31.68Q79.20-31.68 81.20-29.96L81.20-29.96L81.20-29.96Q83.20-28.24 83.36-25.12L83.36-25.12L83.36-25.12Q86.88-31.12 92.32-31.12L92.32-31.12L92.32-31.12Q97.76-31.12 100.64-28.04L100.64-28.04L100.64-28.04Q103.52-24.96 103.52-19.60L103.52-19.60L103.52-19.60Q103.52-10.16 98.40-4.76L98.40-4.76L98.40-4.76Q93.28 0.64 85.12 0.64zM82.72-19.92L79.84-4.24L79.84-4.24Q81.20-1.20 85-1.20L85-1.20L85-1.20Q88.80-1.20 91.64-7.60L91.64-7.60L91.64-7.60Q94.48-14 94.48-22.88L94.48-22.88L94.48-22.88Q94.48-26.56 93.72-27.92L93.72-27.92L93.72-27.92Q92.96-29.28 90.96-29.28L90.96-29.28L90.96-29.28Q88.96-29.28 86.84-26.88L86.84-26.88L86.84-26.88Q84.72-24.48 83.76-22.36L83.76-22.36L83.76-22.36Q82.80-20.24 82.80-19.92L82.80-19.92L82.72-19.92" fill="#ffffff" stroke="none" stroke-width="none" transform="translate(-113.67995262145996,21.73166575908661)" style="transform:matrix(1, 0, 0, 1, -113.68, 21.7317);fill:rgb(255, 255, 255);animation-play-state:paused" ></path></g>
<g class="path" style="transform-origin:7.52004px 6.53167px;animation-timing-function:linear;animation-play-state:paused;animation-name:static-75baa942-0db8-4f52-85e0-cabc7022affc;animation-iteration-count:infinite;animation-fill-mode:forwards;animation-duration:1s;animation-delay:-0.282857s" ><path d="M124.72-31.12L124.72-31.12L124.72-31.12Q134.88-31.12 134.88-23.04L134.88-23.04L134.88-23.04Q134.88-18 130.12-15.40L130.12-15.40L130.12-15.40Q125.36-12.80 116.56-12.72L116.56-12.72L116.56-12.72Q116.40-9.84 116.40-8.16L116.40-8.16L116.40-8.16Q116.40-4.56 118.04-2.84L118.04-2.84L118.04-2.84Q119.68-1.12 122.16-1.12L122.16-1.12L122.16-1.12Q124.64-1.12 126.68-2.08L126.68-2.08L126.68-2.08Q128.72-3.04 129.92-4.36L129.92-4.36L129.92-4.36Q131.12-5.68 132-7.12L132-7.12L132-7.12Q133.60-9.76 133.60-10.48L133.60-10.48L135.04-9.84L135.04-9.84Q134.80-8.56 133.60-6.44L133.60-6.44L133.60-6.44Q132.40-4.32 130.96-2.96L130.96-2.96L130.96-2.96Q129.52-1.60 126.72-0.44L126.72-0.44L126.72-0.44Q123.92 0.72 120.48 0.72L120.48 0.72L120.48 0.72Q114 0.72 110.68-2.36L110.68-2.36L110.68-2.36Q107.36-5.44 107.36-10.80L107.36-10.80L107.36-10.80Q107.36-20.32 112.08-25.72L112.08-25.72L112.08-25.72Q116.80-31.12 124.72-31.12zM132.88-23.04L132.88-23.04Q132.88-25.68 131.32-27.40L131.32-27.40L131.32-27.40Q129.76-29.12 126.68-29.12L126.68-29.12L126.68-29.12Q123.60-29.12 120.68-25.44L120.68-25.44L120.68-25.44Q117.76-21.76 116.80-14.56L116.80-14.56L116.80-14.56Q132.88-14.64 132.88-23.04L132.88-23.04" fill="#ffffff" stroke="none" stroke-width="none" transform="translate(-113.67995262145996,21.73166575908661)" style="transform:matrix(1, 0, 0, 1, -113.68, 21.7317);fill:rgb(255, 255, 255);animation-play-state:paused" ></path></g>
<g class="path" style="transform-origin:41.2px 6.53167px;animation-timing-function:linear;animation-play-state:paused;animation-name:static-75baa942-0db8-4f52-85e0-cabc7022affc;animation-iteration-count:infinite;animation-fill-mode:forwards;animation-duration:1s;animation-delay:-0.188571s" ><path d="M151.76 0.72L151.76 0.72Q145.60 0.72 142.40-2.36L142.40-2.36L142.40-2.36Q139.20-5.44 139.20-10.12L139.20-10.12L139.20-10.12Q139.20-14.80 140.04-18.12L140.04-18.12L140.04-18.12Q140.88-21.44 142.80-24.52L142.80-24.52L142.80-24.52Q144.72-27.60 148.60-29.36L148.60-29.36L148.60-29.36Q152.48-31.12 158.28-31.12L158.28-31.12L158.28-31.12Q164.08-31.12 167.32-28.04L167.32-28.04L167.32-28.04Q170.56-24.96 170.56-19.60L170.56-19.60L170.56-19.60Q170.56-10.48 165.72-4.88L165.72-4.88L165.72-4.88Q160.88 0.72 151.76 0.72L151.76 0.72zM148.24-7.52L148.24-7.52L148.24-7.52Q148.24-1.12 151.96-1.12L151.96-1.12L151.96-1.12Q155.68-1.12 158.60-7.56L158.60-7.56L158.60-7.56Q161.52-14 161.52-22.88L161.52-22.88L161.52-22.88Q161.52-29.60 157.88-29.60L157.88-29.60L157.88-29.60Q154.24-29.60 151.24-23.48L151.24-23.48L151.24-23.48Q148.24-17.36 148.24-7.52" fill="#ffffff" stroke="none" stroke-width="none" transform="translate(-113.67995262145996,21.73166575908661)" style="transform:matrix(1, 0, 0, 1, -113.68, 21.7317);fill:rgb(255, 255, 255);animation-play-state:paused" ></path></g>
<g class="path" style="transform-origin:72.8801px -1.38833px;animation-timing-function:linear;animation-play-state:paused;animation-name:static-75baa942-0db8-4f52-85e0-cabc7022affc;animation-iteration-count:infinite;animation-fill-mode:forwards;animation-duration:1s;animation-delay:-0.0942857s" ><path d="M192.96-51.84L192.96-51.84L192.96-51.84Q195.84-51.84 197.72-49.68L197.72-49.68L197.72-49.68Q199.60-47.52 199.60-43.20L199.60-43.20L199.60-43.20Q199.60-38.88 196.16-30.40L196.16-30.40L199.20-30.40L199.04-28.96L195.52-28.96L195.52-28.96Q192.80-22.16 192.80-18.64L192.80-18.64L191.36-18.64L191.36-18.64Q191.36-22.80 194-28.96L194-28.96L189.36-28.96L189.36-28.96Q186.96-16.40 183.20 5.60L183.20 5.60L173.52 5.60L179.68-28.96L174.80-28.96L174.96-30.40L179.92-30.40L181.20-37.28L181.20-37.28Q182.48-45.20 185.16-48.52L185.16-48.52L185.16-48.52Q187.84-51.84 192.96-51.84zM198.08-43.36L198.08-43.36L198.08-43.36Q198.08-46.24 196.76-48.32L196.76-48.32L196.76-48.32Q195.44-50.40 193.52-50.40L193.52-50.40L193.52-50.40Q192.72-47.28 189.60-30.40L189.60-30.40L194.56-30.40L194.56-30.40Q198.08-38.40 198.08-43.36" fill="#ffffff" stroke="none" stroke-width="none" transform="translate(-113.67995262145996,21.73166575908661)" style="transform:matrix(1, 0, 0, 1, -113.68, 21.7317);fill:rgb(255, 255, 255);animation-play-state:paused" ></path></g>
<g class="path" style="transform-origin:103.72px 24.1317px;animation-timing-function:linear;animation-play-state:paused;animation-name:static-75baa942-0db8-4f52-85e0-cabc7022affc;animation-iteration-count:infinite;animation-fill-mode:forwards;animation-duration:1s" ><path d="M232.80 1.68L232.64 3.12L202 3.12L202.16 1.68L232.80 1.68" fill="#ffffff" stroke="none" stroke-width="none" transform="translate(-113.67995262145996,21.73166575908661)" style="transform:matrix(1, 0, 0, 1, -113.68, 21.7317);fill:rgb(255, 255, 255);animation-play-state:paused" ></path></g></g></g></g></svg>